<svg xmlns="http://www.w3.org/2000/svg" width="261.48" height="72" viewBox="0 0 261.48 72"><path fill="#007745" d="M2.823 141.369c3.388 0 5.913.646 7.651 2.326 1.292 1.264 2.269 3.23 2.269 5.785 0 3.301-1.236 5.684-3.301 7.234-1.938 1.564-4.637 2.268-7.967 2.268h-6.56v-1.006c2.182-.172 2.44-.314 2.44-2.582v-10.436c0-2.27-.229-2.441-2.197-2.584v-1.006h7.665zM.413 155.25c0 1.908.588 2.527 2.468 2.527 4.033 0 6.416-3.172 6.416-7.854 0-2.611-.848-4.822-2.441-6-1.119-.99-2.582-1.434-4.319-1.434-1.034 0-1.593.172-1.823.357-.229.23-.301.617-.301 1.465v10.939zm15.242 3.732v-.895c1.825-.152 2.066-.307 2.066-2.297v-9.275c0-2.016-.241-2.168-2.066-2.297v-.893h6.788v.893c-1.825.129-2.042.281-2.042 2.297v9.275c0 2.018.217 2.145 2.042 2.297v.895h-6.788zm24.613-6.584c-1.275.229-1.403.305-1.403 1.824v1.967c0 .828.026 1.619.153 2.295-1.467.344-3.419.842-5.332.842-5.359 0-8.752-3.242-8.752-8 0-5.562 4.362-8.357 9.173-8.357 1.901 0 3.687.459 4.515.678.078.83.219 2.117.371 3.891l-.919.178c-.625-2.844-2.321-3.738-4.388-3.738-3.088 0-5.614 2.592-5.614 6.955 0 3.611 1.85 7.373 5.906 7.373.601 0 1.175-.127 1.557-.344.396-.23.612-.574.612-1.404v-2.143c0-1.646-.14-1.811-2.538-2.016v-.895h6.659v.894zm2.196 6.584v-.895c1.825-.152 2.068-.307 2.068-2.297v-9.275c0-2.016-.243-2.168-2.068-2.297v-.893h6.788v.893c-1.825.129-2.041.281-2.041 2.297v9.275c0 2.018.216 2.145 2.041 2.297v.895h-6.788zm21.871-11.676c-.267-1.236-.497-1.912-.867-2.334-.422-.473-.856-.625-2.348-.625h-1.339v11.443c0 1.965.217 2.145 2.386 2.297v.895h-7.401v-.895c2.093-.152 2.296-.332 2.296-2.297v-11.443h-1.149c-1.772 0-2.219.242-2.55.676-.344.396-.548 1.188-.842 2.283h-.943c.101-1.645.241-3.33.292-4.605h.625c.37.549.65.625 1.302.625h9.3c.637 0 .894-.152 1.264-.625h.65c.025 1.047.153 3.037.229 4.518l-.905.087zm10.198 11.676v-.895c1.416-.203 1.568-.408 1.249-1.404-.28-.764-.65-1.861-1.046-2.934H69.99a28.056 28.056 0 0 0-.867 2.59c-.395 1.289-.28 1.545 1.442 1.748v.895h-5.359v-.895c1.568-.203 1.876-.383 2.666-2.422l4.812-12.416 1.123-.281c1.454 4.07 2.998 8.588 4.516 12.645.728 2.066 1.046 2.297 2.617 2.475v.895h-6.407zm-2.093-12.096h-.076c-.677 1.875-1.327 3.764-1.99 5.588h3.956l-1.89-5.588zm22.508 8.102c-.165.932-.664 3.316-.867 3.994h-11.24v-.895c1.991-.152 2.233-.307 2.233-2.297v-9.275c0-2.016-.242-2.168-2.093-2.297v-.893h6.864v.893c-1.876.129-2.092.281-2.092 2.297v9.303c0 1.174.115 1.645.612 1.861.408.205 1.123.256 1.952.256 1.072 0 1.914-.127 2.462-.754.409-.498.855-1.262 1.25-2.41l.919.217zm14.292.049c-.14.934-.624 3.242-.841 3.945H96.508v-.895c2.042-.178 2.271-.307 2.271-2.297v-9.275c0-2.039-.229-2.168-1.979-2.297v-.893h11.022c.026.447.128 2.17.243 3.561l-.943.129c-.218-.92-.498-1.545-.842-2.018-.307-.434-.97-.65-2.424-.65h-1.467c-.83 0-.919.051-.919.842v5.117h1.863c2.015 0 2.245-.154 2.563-1.801h.907v4.836h-.907c-.318-1.76-.549-1.861-2.563-1.861h-1.863v4.26c0 1.123.166 1.672.612 1.916.409.229 1.251.279 2.271.279 1.404 0 2.195-.154 2.718-.754.447-.498.855-1.262 1.25-2.309l.919.165z"/><path fill="#747173" d="M144.906 151.576c-1.434.258-1.578.344-1.578 2.053v2.211c0 .932.029 1.822.172 2.582-1.65.389-3.846.949-5.998.949-6.029 0-9.85-3.646-9.85-9.002 0-6.258 4.912-9.4 10.322-9.4 2.139 0 4.148.516 5.08.76.086.934.246 2.383.418 4.377l-1.035.203c-.703-3.203-2.611-4.207-4.936-4.207-3.475 0-6.316 2.914-6.316 7.822 0 4.062 2.08 8.295 6.645 8.295.674 0 1.322-.141 1.752-.385.445-.26.689-.646.689-1.58v-2.412c0-1.85-.158-2.037-2.857-2.266v-1.006h7.492v1.006zm14.844 3.461c-.141.934-.625 3.242-.842 3.945h-11.891v-.895c2.043-.178 2.271-.307 2.271-2.297v-9.275c0-2.039-.229-2.168-1.979-2.297v-.893h11.023c.025.447.127 2.17.242 3.561l-.943.129c-.217-.92-.498-1.545-.842-2.018-.307-.434-.969-.65-2.424-.65H152.9c-.83 0-.92.051-.92.842v5.117h1.863c2.016 0 2.244-.154 2.564-1.801h.906v4.836h-.906c-.32-1.76-.549-1.861-2.564-1.861h-1.863v4.26c0 1.123.166 1.672.611 1.916.408.229 1.252.279 2.271.279 1.404 0 2.195-.154 2.719-.754.447-.498.855-1.262 1.25-2.309l.919.165zm10.465-7.871c-.473-1.504-1.148-3.189-3.127-3.189-1.543 0-2.461 1.098-2.461 2.412 0 1.494 1.02 2.297 3.01 3.293 2.221 1.096 4.172 2.373 4.172 4.912 0 2.666-2.246 4.732-5.613 4.732-.918 0-1.695-.166-2.348-.344-.662-.18-1.07-.369-1.363-.498-.23-.625-.523-2.475-.703-3.916l.943-.27c.408 1.467 1.584 4.006 3.969 4.006 1.57 0 2.564-1.045 2.564-2.639 0-1.545-1.188-2.439-2.959-3.369-2.094-1.047-4.07-2.336-4.07-4.811 0-2.514 1.951-4.518 5.244-4.518 1.338 0 2.539.383 3.188.6.104.855.27 1.875.473 3.42l-.919.179zm16.258 7.871c-.141.934-.625 3.242-.844 3.945h-11.891v-.895c2.043-.178 2.271-.307 2.271-2.297v-9.275c0-2.039-.229-2.168-1.977-2.297v-.893h11.023c.025.447.127 2.17.242 3.561l-.945.129c-.215-.92-.496-1.545-.842-2.018-.305-.434-.969-.65-2.424-.65h-1.469c-.828 0-.918.051-.918.842v5.117h1.863c2.018 0 2.246-.154 2.566-1.801h.904v4.836h-.904c-.32-1.76-.549-1.861-2.566-1.861h-1.863v4.26c0 1.123.168 1.672.613 1.916.41.229 1.25.279 2.271.279 1.402 0 2.193-.154 2.717-.754.447-.498.855-1.262 1.252-2.309l.921.165zm13.922-.049c-.166.932-.664 3.316-.867 3.994h-11.242v-.895c1.992-.152 2.234-.307 2.234-2.297v-9.275c0-2.016-.242-2.168-2.094-2.297v-.893h6.865v.893c-1.875.129-2.092.281-2.092 2.297v9.303c0 1.174.113 1.645.613 1.861.406.205 1.121.256 1.951.256 1.07 0 1.914-.127 2.463-.754.408-.498.854-1.262 1.248-2.41l.921.217zm13.742 0c-.166.932-.664 3.316-.867 3.994h-11.24v-.895c1.99-.152 2.232-.307 2.232-2.297v-9.275c0-2.016-.242-2.168-2.092-2.297v-.893h6.865v.893c-1.877.129-2.094.281-2.094 2.297v9.303c0 1.174.115 1.645.613 1.861.408.205 1.123.256 1.951.256 1.072 0 1.914-.127 2.463-.754.408-.498.855-1.262 1.248-2.41l.921.217zm10.287-7.822c-.473-1.504-1.15-3.189-3.127-3.189-1.545 0-2.461 1.098-2.461 2.412 0 1.494 1.02 2.297 3.01 3.293 2.221 1.096 4.174 2.373 4.174 4.912 0 2.666-2.244 4.732-5.615 4.732-.92 0-1.697-.166-2.348-.344-.664-.18-1.072-.369-1.365-.498-.23-.625-.523-2.475-.701-3.916l.943-.27c.408 1.467 1.582 4.006 3.969 4.006 1.568 0 2.564-1.045 2.564-2.639 0-1.545-1.188-2.439-2.961-3.369-2.092-1.047-4.07-2.336-4.07-4.811 0-2.514 1.951-4.518 5.242-4.518 1.342 0 2.541.383 3.191.6.104.855.27 1.875.475 3.42l-.92.179zm18.449 7.796c-.33 1.121-.916 2.896-1.299 3.764-.65.127-2.719.6-4.391.6-6.035 0-8.6-4.109-8.6-7.949 0-5.039 3.766-8.408 9.201-8.408 1.848 0 3.494.459 4.172.627.217 1.326.367 2.371.496 3.838l-.906.18c-.738-2.691-2.217-3.572-4.338-3.572-3.508 0-5.486 3.229-5.486 6.84 0 4.389 2.426 7.348 5.666 7.348 2.094 0 3.367-1.211 4.568-3.635l.917.367zm18.607-10.744c-1.902.129-2.094.281-2.094 2.271v9.328c0 1.99.217 2.092 2.068 2.27v.895H254.5v-.895c1.965-.178 2.17-.279 2.17-2.27V151.3h-7.004v4.518c0 1.99.217 2.092 2.039 2.27v.895h-6.785v-.895c1.824-.178 2.029-.279 2.029-2.27v-9.328c0-1.99-.205-2.143-2.105-2.271v-.893h6.787v.893c-1.748.129-1.965.281-1.965 2.271v3.561h7.004v-3.561c0-1.99-.205-2.143-1.979-2.271v-.893h6.789v.892zm10.426 14.764v-.895c1.416-.203 1.568-.408 1.248-1.404-.277-.764-.646-1.861-1.045-2.934h-4.746c-.293.768-.6 1.621-.865 2.59-.398 1.289-.283 1.545 1.441 1.748v.895h-5.359v-.895c1.57-.203 1.877-.383 2.668-2.422l4.809-12.416 1.123-.281c1.455 4.07 2.998 8.588 4.516 12.645.729 2.066 1.045 2.297 2.617 2.475v.895h-6.407zm-2.094-12.096h-.074c-.676 1.875-1.328 3.764-1.992 5.588h3.957l-1.891-5.588zm20.965.203c-.24-.969-.471-1.543-.842-2.016-.383-.549-.994-.727-2.447-.727h-1.467c-.807 0-.893.051-.893.842v5.348h2.143c2.09 0 2.281-.18 2.535-1.725h.922v4.785h-.922c-.254-1.672-.445-1.877-2.535-1.877h-2.143v3.994c0 2.066.213 2.195 2.332 2.373v.895h-7.055v-.895c1.797-.152 2.039-.307 2.039-2.373v-9.146c0-2.068-.242-2.221-2.016-2.35v-.893h11c.025.574.127 2.271.266 3.611l-.917.154zm15.834.217c-.266-1.236-.496-1.912-.865-2.334-.422-.473-.855-.625-2.348-.625h-1.34v11.443c0 1.965.219 2.145 2.385 2.297v.895h-7.398v-.895c2.09-.152 2.295-.332 2.295-2.297v-11.443h-1.146c-1.775 0-2.221.242-2.553.676-.344.396-.549 1.188-.84 2.283h-.947c.104-1.645.246-3.33.295-4.605h.627c.369.549.648.625 1.299.625h9.301c.639 0 .893-.152 1.266-.625h.65c.025 1.047.152 3.037.229 4.518l-.91.087zm-188.32-16.531h1.225v38.787h-1.225zM35.143 68.281h-.03c-1.542 0-3.098-.091-4.621-.273l1.931-16.232c.887.106 1.79.159 2.69.159l.208.002-.178 6.962v9.382z"/><path fill="#009D3A" d="M28.795 63.036a38.82 38.82 0 0 1-3.866-1.088l5.243-15.484c.729.247 1.479.459 2.229.629l-3.606 15.943zm15.279.695l-5.812-15.277a22.559 22.559 0 0 0 2.12-.936l7.366 14.593a39.086 39.086 0 0 1-3.674 1.62z"/><path fill="#007745" d="M21.696 63.633a39.496 39.496 0 0 1-3.556-1.861l8.331-14.065c.663.392 1.354.755 2.053 1.076l-6.828 14.85z"/><path fill="#747173" d="M52.214 65.268l-8.837-13.751a22.812 22.812 0 0 0 1.886-1.354L55.47 62.93a38.875 38.875 0 0 1-3.256 2.338z"/><path fill="#007745" d="M55.785 59.5L44.321 47.847a22.437 22.437 0 0 0 1.814-2.013l12.779 10.193a39.281 39.281 0 0 1-3.129 3.473zM11.16 55.307a39.596 39.596 0 0 1-2.698-3.818l13.891-8.613a22.992 22.992 0 0 0 1.564 2.212L11.16 55.307z"/><path fill="#009D3A" d="M10.837 47.834a38.638 38.638 0 0 1-1.562-3.701l15.371-5.561c.262.723.565 1.441.9 2.133l-14.709 7.129z"/><path fill="#747173" d="M67.006 48.39l-15.564-4.995c.233-.729.433-1.48.59-2.235l16.001 3.343a38.7 38.7 0 0 1-1.027 3.887zM6.981 42.127a39.008 39.008 0 0 1-.762-3.939l16.188-2.268c.108.766.254 1.533.439 2.277l-15.865 3.93z"/><path fill="#007745" d="M64.764 41.459l-16.26-1.668c.078-.768.118-1.552.118-2.328l16.347-.177v.233c0 1.275-.069 2.62-.205 3.94z"/><path fill="#009D3A" d="M51.944 36.538a22.82 22.82 0 0 0-.451-2.67l15.925-3.684a38.72 38.72 0 0 1 .778 4.617l-16.252 1.737zm-30.91-3.948L5.086 29.004c.343-1.52.781-3.037 1.305-4.505l15.395 5.496a22.027 22.027 0 0 0-.752 2.595z"/><path fill="#747173" d="M26.056 31.176l-14.739-7.07a38.828 38.828 0 0 1 1.923-3.523l13.926 8.559a21.958 21.958 0 0 0-1.11 2.034z"/><path fill="#007745" d="M47.452 31.071a22.947 22.947 0 0 0-1.392-1.859L58.618 18.75a38.762 38.762 0 0 1 2.404 3.21l-13.57 9.111zm-22.146-3.84l-12.968-9.949a38.343 38.343 0 0 1 2.598-3.049L26.815 25.46c-.53.56-1.037 1.156-1.509 1.771z"/><path fill="#009D3A" d="M48.926 25.674a23.396 23.396 0 0 0-1.747-1.538L57.338 11.33a39.269 39.269 0 0 1 3.004 2.646L48.926 25.674z"/><path fill="#747173" d="M45.081 25.473a22.463 22.463 0 0 0-2.364-1.315l7.052-14.745a39.696 39.696 0 0 1 4.096 2.271l-8.784 13.789z"/><path fill="#009D3A" d="M29.437 21.674L22.295 6.971a39.025 39.025 0 0 1 4.329-1.788l5.31 15.46c-.848.291-1.689.639-2.497 1.031z"/><path fill="#747173" d="M33.873 24.946l-3.668-15.93a39.07 39.07 0 0 1 3.952-.695l2 16.224a22.39 22.39 0 0 0-2.284.401z"/><path fill="#007745" d="M39.042 21.841a23.002 23.002 0 0 0-2.332-.071l-.327-16.343a39.472 39.472 0 0 1 3.995.125l-1.336 16.289zm44.22.501c0-3.678 0-4.354-.049-5.129-.048-.822-.241-1.209-1.041-1.378-.193-.05-.605-.073-.942-.073-.267 0-.412-.049-.412-.217 0-.17.17-.218.532-.218 1.283 0 2.806.073 3.483.073.75 0 2.274-.073 3.725-.073 3.025 0 7.065 0 9.702 2.757 1.21 1.258 2.346 3.266 2.346 6.146 0 3.048-1.282 5.37-2.636 6.749-1.114 1.137-3.628 2.854-8.104 2.854-.872 0-1.864-.071-2.782-.145-.919-.072-1.765-.145-2.37-.145-.267 0-.799 0-1.379.023-.556 0-1.186.049-1.669.049-.315 0-.484-.072-.484-.242 0-.121.097-.193.386-.193.363 0 .654-.049.872-.098.482-.095.604-.628.7-1.33.122-1.017.122-2.928.122-5.152v-4.258zm3.024 2.66c0 2.566.024 4.429.047 4.889.026.604.074 1.571.267 1.837.315.46 1.259.968 3.169.968 2.467 0 4.113-.482 5.564-1.742 1.548-1.33 2.032-3.531 2.032-6.021 0-3.074-1.283-5.059-2.322-6.05-2.226-2.128-4.984-2.419-6.871-2.419-.484 0-1.38.074-1.573.171-.218.097-.29.218-.29.482-.024.824-.024 2.929-.024 4.839v3.046zm19.05-1.418c0-3.266 0-3.87-.044-4.557-.042-.732-.256-1.098-.731-1.205a3.07 3.07 0 0 0-.773-.087c-.216 0-.346-.042-.346-.216 0-.128.173-.17.517-.17.817 0 2.173.063 2.796.063.537 0 1.807-.063 2.623-.063.28 0 .451.042.451.17 0 .174-.129.216-.343.216-.216 0-.387.022-.646.065-.58.108-.751.473-.796 1.227-.042.687-.042 1.291-.042 4.557v3.787c0 2.086 0 3.783.086 4.709.063.582.214.967.859 1.055.301.043.775.086 1.096.086.238 0 .346.064.346.172 0 .15-.173.214-.408.214-1.42 0-2.775-.063-3.357-.063-.493 0-1.848.063-2.708.063-.282 0-.43-.063-.43-.214 0-.107.085-.172.343-.172.323 0 .58-.043.775-.086.43-.088.559-.451.623-1.076.108-.904.108-2.602.108-4.688v-3.787zm22.449 8.583c0 .581-.021.624-.281.773-1.395.732-3.504.969-5.182.969-5.27 0-9.936-2.495-9.936-8.43 0-3.442 1.785-5.85 3.742-7.031 2.064-1.25 3.977-1.399 5.785-1.399 1.482 0 3.375.257 3.805.344.453.087 1.205.216 1.701.235.258.023.301.108.301.259 0 .237-.15.839-.15 3.527 0 .346-.066.452-.238.452-.15 0-.193-.106-.213-.28-.066-.493-.174-1.182-.732-1.784-.645-.688-2.365-1.678-4.795-1.678-1.184 0-2.754.086-4.26 1.334-1.203 1.01-1.979 2.624-1.979 5.27 0 4.623 2.947 8.084 7.484 8.084.559 0 1.312 0 1.828-.235.324-.15.408-.431.408-.796v-2.022c0-1.075 0-1.893-.021-2.537-.021-.729-.215-1.075-.924-1.226-.174-.043-.539-.065-.84-.065-.193 0-.322-.043-.322-.172 0-.171.152-.214.451-.214 1.119 0 2.475.065 3.121.065.666 0 1.805-.065 2.516-.065.279 0 .43.043.43.214 0 .129-.131.172-.279.172-.172 0-.324.022-.58.065-.582.107-.797.473-.82 1.226-.02.645-.02 1.506-.02 2.581v2.364zm5.885-8.583c0-3.266 0-3.87-.043-4.557-.043-.732-.258-1.098-.732-1.205a3.06 3.06 0 0 0-.773-.087c-.215 0-.346-.042-.346-.216 0-.128.174-.17.518-.17.818 0 2.172.063 2.795.063.537 0 1.809-.063 2.623-.063.281 0 .451.042.451.17 0 .174-.127.216-.342.216a3.64 3.64 0 0 0-.646.065c-.58.108-.752.473-.795 1.227-.043.687-.043 1.291-.043 4.557v3.787c0 2.086 0 3.783.086 4.709.064.582.215.967.859 1.055.303.043.775.086 1.098.086.236 0 .346.064.346.172 0 .15-.174.214-.408.214-1.42 0-2.775-.063-3.357-.063-.494 0-1.848.063-2.707.063-.281 0-.432-.063-.432-.214 0-.107.086-.172.344-.172.324 0 .58-.043.775-.086.43-.088.559-.451.623-1.076.107-.904.107-2.602.107-4.688v-3.787zm12.469-5.031l-3.205.086c-1.246.044-1.764.152-2.086.624-.215.323-.322.579-.365.753-.043.172-.107.257-.234.257-.152 0-.195-.106-.195-.343 0-.344.408-2.303.451-2.473.066-.281.129-.409.258-.409.172 0 .387.216.926.257.623.066 1.439.108 2.148.108h8.518c.689 0 1.16-.063 1.484-.108.322-.062.496-.107.58-.107.15 0 .172.13.172.453 0 .451-.062 1.936-.062 2.494-.023.215-.064.344-.193.344-.174 0-.215-.107-.238-.431l-.023-.235c-.041-.56-.621-1.162-2.535-1.205l-2.709-.064v8.818c0 1.979 0 3.678.107 4.602.062.603.193 1.074.838 1.162.301.043.773.086 1.096.086.238 0 .344.064.344.172 0 .15-.17.214-.406.214-1.42 0-2.775-.063-3.377-.063-.494 0-1.85.063-2.711.063-.277 0-.43-.063-.43-.214 0-.107.086-.172.344-.172.324 0 .582-.043.773-.086.432-.088.561-.56.623-1.185.109-.901.109-2.601.109-4.579v-8.819zm11.867 9.571c-.109 0-.152.043-.195.172l-1.16 2.947c-.217.537-.324 1.054-.324 1.312 0 .385.193.666.861.666h.322c.258 0 .322.042.322.172 0 .172-.129.214-.365.214-.688 0-1.613-.063-2.281-.063-.236 0-1.42.063-2.537.063-.277 0-.406-.042-.406-.214 0-.13.084-.172.258-.172.191 0 .492-.021.666-.043.99-.131 1.396-.861 1.828-1.936l5.396-13.333c.26-.625.389-.861.604-.861.193 0 .322.194.537.688.516 1.184 3.957 9.786 5.332 13.056.82 1.934 1.441 2.235 1.895 2.344.322.064.645.086.902.086.172 0 .279.021.279.172 0 .172-.193.214-.99.214-.773 0-2.344 0-4.064-.042-.385-.021-.645-.021-.645-.172 0-.13.086-.172.301-.193.152-.044.303-.236.193-.496l-1.721-4.429c-.041-.108-.105-.151-.213-.151h-4.795zm4.387-1.075c.107 0 .127-.066.107-.13l-1.936-5.291c-.023-.085-.043-.192-.109-.192-.064 0-.107.107-.129.192l-1.979 5.271c-.02.084 0 .15.088.15h3.958zm12.378.323c0 2.753 0 4.236.453 4.624.365.321.924.472 2.604.472 1.139 0 1.979-.021 2.516-.602.258-.279.514-.882.559-1.29.021-.194.062-.322.238-.322.148 0 .168.107.168.364 0 .236-.148 1.85-.32 2.475-.131.473-.238.58-1.355.58-1.549 0-2.666-.044-3.635-.065a57.518 57.518 0 0 0-2.623-.063c-.238 0-.709 0-1.227.021-.494 0-1.053.042-1.482.042-.279 0-.43-.063-.43-.214 0-.107.084-.172.342-.172.324 0 .582-.043.775-.086.43-.088.539-.56.623-1.185.109-.901.109-2.601.109-4.579v-3.787c0-3.266 0-3.87-.045-4.557-.043-.732-.215-1.076-.924-1.227a3.205 3.205 0 0 0-.711-.065c-.236 0-.365-.042-.365-.192 0-.151.15-.193.473-.193 1.012 0 2.367.063 2.947.063.518 0 2.086-.063 2.924-.063.301 0 .453.042.453.193 0 .15-.129.192-.389.192-.234 0-.58.022-.838.065-.582.108-.752.473-.797 1.227-.043.687-.043 1.291-.043 4.557v3.787zm10.211-3.788c0-3.266 0-3.87-.045-4.557-.041-.732-.215-1.076-.922-1.227-.174-.043-.539-.065-.84-.065-.236 0-.365-.042-.365-.192 0-.151.15-.193.473-.193.582 0 1.205.021 1.742.021.559.021 1.053.042 1.355.042.688 0 4.967 0 5.375-.021.41-.042.754-.087.926-.128.107-.021.234-.088.344-.088.107 0 .129.088.129.195 0 .148-.107.407-.172 1.397-.021.214-.066 1.161-.107 1.419-.021.107-.064.236-.217.236-.148 0-.191-.105-.191-.301 0-.15-.021-.516-.131-.773-.148-.389-.365-.646-1.441-.775-.363-.043-2.621-.086-3.053-.086-.105 0-.15.064-.15.215v5.441c0 .151.021.236.15.236.475 0 2.947 0 3.441-.043.516-.042.84-.107 1.033-.322.15-.171.234-.278.342-.278.088 0 .152.042.152.17 0 .13-.086.474-.174 1.571-.02.43-.086 1.29-.086 1.44 0 .172 0 .407-.191.407-.152 0-.193-.085-.193-.193-.021-.214-.021-.494-.086-.773-.109-.431-.41-.751-1.205-.838-.41-.043-2.537-.066-3.055-.066-.107 0-.129.088-.129.217v1.699c0 .729-.021 2.708 0 3.332.045 1.484.387 1.807 2.58 1.807.561 0 1.465 0 2.023-.258.559-.257.814-.709.967-1.592.043-.236.086-.32.238-.32.172 0 .172.17.172.385 0 .496-.172 1.959-.281 2.389-.15.559-.344.559-1.162.559-1.611 0-2.795-.044-3.719-.065a48.565 48.565 0 0 0-2.238-.063c-.236 0-.709 0-1.225.021-.494 0-1.053.042-1.482.042-.281 0-.432-.063-.432-.214 0-.107.086-.172.344-.172.322 0 .58-.043.775-.086.43-.088.537-.56.623-1.185.107-.901.107-2.601.107-4.579v-3.788z"/><path fill="#747173" d="M97.945 56.18c0 .652-.023.7-.315.871-1.572.821-3.941 1.087-5.83 1.087-5.926 0-11.176-2.806-11.176-9.481 0-3.871 2.009-6.582 4.209-7.912 2.323-1.402 4.476-1.572 6.508-1.572 1.669 0 3.798.29 4.282.387.508.096 1.354.243 1.912.267.29.024.338.121.338.29 0 .266-.169.943-.169 3.967 0 .389-.074.509-.267.509-.169 0-.217-.12-.241-.315-.073-.556-.195-1.33-.823-2.007-.725-.774-2.66-1.888-5.395-1.888-1.33 0-3.096.098-4.789 1.501-1.355 1.138-2.225 2.95-2.225 5.927 0 5.201 3.314 9.096 8.418 9.096.628 0 1.475 0 2.056-.266.363-.17.459-.484.459-.895v-2.275c0-1.21 0-2.129-.024-2.854-.024-.822-.242-1.21-1.041-1.378-.193-.049-.605-.074-.943-.074-.218 0-.363-.047-.363-.191 0-.195.171-.244.509-.244 1.257 0 2.781.074 3.507.074.749 0 2.032-.074 2.83-.074.315 0 .483.049.483.244 0 .145-.145.191-.315.191-.192 0-.363.025-.651.074-.654.119-.897.531-.921 1.378-.024.726-.024 1.694-.024 2.904v2.659zm6.183-8.41c0-3.268 0-3.871-.043-4.559-.044-.732-.216-1.076-.925-1.227-.172-.043-.539-.064-.839-.064-.238 0-.366-.042-.366-.193 0-.15.151-.193.472-.193.582 0 1.205.021 1.743.021.559.021 1.055.042 1.355.042.688 0 4.967 0 5.375-.021.41-.043.754-.088.927-.129.108-.021.235-.086.343-.086.109 0 .129.086.129.193 0 .149-.107.408-.172 1.397-.021.216-.064 1.161-.107 1.42-.021.106-.064.235-.215.235s-.193-.105-.193-.301c0-.15-.021-.516-.129-.773-.151-.389-.367-.645-1.44-.773-.366-.043-2.624-.088-3.054-.088-.107 0-.151.065-.151.217v5.439c0 .151.021.237.151.237.472 0 2.945 0 3.439-.044.518-.042.838-.106 1.033-.322.15-.171.236-.278.344-.278.086 0 .15.042.15.171s-.086.474-.172 1.57c-.021.431-.086 1.29-.086 1.44 0 .172 0 .409-.193.409-.15 0-.193-.086-.193-.193-.021-.216-.021-.496-.087-.775-.108-.43-.409-.751-1.205-.838-.408-.043-2.537-.066-3.053-.066-.108 0-.128.088-.128.217v1.7c0 .729-.022 2.708 0 3.333.044 1.482.387 1.805 2.581 1.805.559 0 1.462 0 2.021-.257.559-.257.816-.71.968-1.593.042-.234.087-.32.235-.32.174 0 .174.17.174.386 0 .496-.174 1.958-.28 2.388-.149.559-.345.559-1.162.559-1.612 0-2.795-.043-3.72-.065a48.49 48.49 0 0 0-2.237-.063c-.238 0-.709 0-1.227.021-.493 0-1.052.042-1.482.042-.281 0-.431-.063-.431-.214 0-.107.087-.172.344-.172.323 0 .581-.043.773-.086.431-.088.538-.56.625-1.184.108-.902.108-2.602.108-4.579V47.77zm12.294 9.764c-.344-.15-.408-.258-.408-.732 0-1.182.086-2.471.107-2.816.021-.322.086-.559.258-.559.195 0 .217.194.217.365 0 .279.086.732.191 1.098.475 1.591 1.744 2.172 3.076 2.172 1.936 0 2.883-1.312 2.883-2.451 0-1.055-.322-2.043-2.109-3.441l-.988-.775c-2.367-1.85-3.182-3.354-3.182-5.096 0-2.367 1.979-4.064 4.967-4.064 1.398 0 2.301.215 2.859.364.193.044.301.107.301.259 0 .279-.084.904-.084 2.58 0 .473-.066.646-.238.646-.15 0-.215-.129-.215-.387 0-.193-.105-.861-.559-1.42-.324-.408-.945-1.054-2.346-1.054-1.59 0-2.559.923-2.559 2.214 0 .99.496 1.744 2.281 3.097l.602.452c2.604 1.957 3.525 3.441 3.525 5.484 0 1.247-.473 2.73-2.02 3.741-1.076.688-2.281.882-3.42.882-1.247-.001-2.213-.15-3.139-.559zm13.588-9.764c0-3.268 0-3.871-.045-4.559-.041-.732-.215-1.076-.924-1.227-.172-.043-.537-.064-.84-.064-.236 0-.363-.042-.363-.193 0-.15.148-.193.473-.193.58 0 1.203.021 1.74.021.561.021 1.055.042 1.355.042.688 0 4.967 0 5.377-.021.408-.043.754-.088.926-.129.107-.021.234-.086.342-.086.109 0 .131.086.131.193 0 .149-.107.408-.174 1.397-.02.216-.064 1.161-.107 1.42-.02.106-.064.235-.215.235-.148 0-.193-.105-.193-.301 0-.15-.021-.516-.129-.773-.15-.389-.365-.645-1.441-.773-.365-.043-2.623-.088-3.053-.088-.107 0-.15.065-.15.217v5.439c0 .151.021.237.15.237.473 0 2.945 0 3.441-.044.516-.042.838-.106 1.031-.322.15-.171.236-.278.344-.278.086 0 .15.042.15.171s-.086.474-.17 1.57c-.021.431-.088 1.29-.088 1.44 0 .172 0 .409-.193.409-.15 0-.193-.086-.193-.193-.021-.216-.021-.496-.086-.775-.107-.43-.41-.751-1.203-.838-.41-.043-2.539-.066-3.057-.066-.105 0-.127.088-.127.217v1.7c0 .729-.021 2.708 0 3.333.043 1.482.389 1.805 2.58 1.805.561 0 1.463 0 2.021-.257.561-.257.816-.71.969-1.593.041-.234.086-.32.236-.32.172 0 .172.17.172.386 0 .496-.172 1.958-.279 2.388-.15.559-.344.559-1.164.559-1.609 0-2.793-.043-3.719-.065a48.488 48.488 0 0 0-2.236-.063c-.236 0-.709 0-1.227.021-.494 0-1.053.042-1.482.042-.279 0-.43-.063-.43-.214 0-.107.084-.172.344-.172.322 0 .58-.043.773-.086.432-.088.539-.56.623-1.184.109-.902.109-2.602.109-4.579V47.77zm16.168 3.786c0 2.753 0 4.235.449 4.624.367.32.926.471 2.602.471 1.141 0 1.979-.021 2.518-.602.258-.279.518-.881.559-1.289.021-.195.066-.322.236-.322.15 0 .172.106.172.364 0 .236-.15 1.849-.32 2.474-.129.473-.238.58-1.355.58-1.549 0-2.67-.043-3.635-.065a57.45 57.45 0 0 0-2.623-.063c-.238 0-.711 0-1.227.021-.496 0-1.055.042-1.484.042-.279 0-.43-.063-.43-.214 0-.107.086-.172.344-.172.322 0 .582-.043.775-.086.43-.088.535-.56.623-1.184.107-.902.107-2.602.107-4.579V47.77c0-3.268 0-3.871-.043-4.559-.043-.732-.215-1.076-.926-1.227a3.181 3.181 0 0 0-.709-.064c-.234 0-.367-.042-.367-.193 0-.15.152-.193.475-.193 1.01 0 2.365.063 2.945.063.516 0 2.086-.063 2.926-.063.301 0 .451.043.451.193 0 .151-.129.193-.387.193-.236 0-.58.021-.84.064-.578.108-.752.474-.795 1.227-.041.688-.041 1.291-.041 4.559v3.786zm12.896 0c0 2.753 0 4.235.451 4.624.365.32.926.471 2.602.471 1.141 0 1.979-.021 2.518-.602.258-.279.516-.881.559-1.289.02-.195.066-.322.236-.322.15 0 .172.106.172.364 0 .236-.15 1.849-.322 2.474-.129.473-.236.58-1.355.58-1.549 0-2.668-.043-3.635-.065a57.383 57.383 0 0 0-2.623-.063c-.236 0-.711 0-1.227.021-.494 0-1.053.042-1.484.042-.279 0-.43-.063-.43-.214 0-.107.086-.172.344-.172.322 0 .582-.043.775-.086.43-.088.537-.56.623-1.184.107-.902.107-2.602.107-4.579V47.77c0-3.268 0-3.871-.041-4.559-.045-.732-.215-1.076-.926-1.227a3.193 3.193 0 0 0-.709-.064c-.236 0-.367-.042-.367-.193 0-.15.152-.193.475-.193 1.01 0 2.363.063 2.945.063.516 0 2.086-.063 2.926-.063.301 0 .449.043.449.193 0 .151-.127.193-.385.193-.238 0-.582.021-.84.064-.58.108-.754.474-.795 1.227-.043.688-.043 1.291-.043 4.559v3.786zm9.028 5.978c-.344-.15-.408-.258-.408-.732 0-1.182.084-2.471.107-2.816.021-.322.086-.559.256-.559.195 0 .217.194.217.365 0 .279.086.732.193 1.098.473 1.591 1.742 2.172 3.076 2.172 1.934 0 2.881-1.312 2.881-2.451 0-1.055-.322-2.043-2.107-3.441l-.99-.775c-2.365-1.85-3.182-3.354-3.182-5.096 0-2.367 1.979-4.064 4.967-4.064 1.398 0 2.303.215 2.861.364.193.044.301.107.301.259 0 .279-.086.904-.086 2.58 0 .473-.064.646-.236.646-.152 0-.215-.129-.215-.387 0-.193-.107-.861-.561-1.42-.32-.408-.945-1.054-2.344-1.054-1.592 0-2.561.923-2.561 2.214 0 .99.496 1.744 2.281 3.097l.602.452c2.602 1.957 3.527 3.441 3.527 5.484 0 1.247-.473 2.73-2.021 3.741-1.076.688-2.279.882-3.42.882-1.246-.001-2.215-.15-3.138-.559zm13.908-1.784c-2.105-1.85-2.666-4.259-2.666-6.345 0-1.463.451-4 2.516-5.891 1.549-1.421 3.592-2.281 6.795-2.281 1.334 0 2.131.086 3.121.215.816.107 1.502.302 2.148.365.236.021.322.129.322.258 0 .172-.064.43-.107 1.182-.041.712-.021 1.895-.064 2.324-.021.321-.064.495-.258.495-.172 0-.215-.174-.215-.475a3.066 3.066 0 0 0-.84-1.978c-.709-.752-2.385-1.334-4.365-1.334-1.869 0-3.096.475-4.043 1.334-1.568 1.441-1.979 3.482-1.979 5.568 0 5.121 3.895 7.658 6.775 7.658 1.914 0 3.076-.216 3.936-1.205a3.568 3.568 0 0 0 .73-1.419c.064-.343.107-.431.281-.431.148 0 .193.15.193.323 0 .257-.26 2.128-.475 2.86-.107.364-.193.472-.561.623-.859.345-2.494.494-3.869.494-2.946.002-5.418-.643-7.375-2.34zm27.799-7.376c.066 0 .131-.045.131-.152v-.452c0-3.268 0-3.871-.045-4.559-.041-.732-.215-1.076-.924-1.227-.172-.043-.537-.064-.838-.064-.236 0-.367-.042-.367-.193 0-.15.152-.193.453-.193 1.16 0 2.516.063 3.096.063.518 0 1.873-.063 2.711-.063.301 0 .451.043.451.193 0 .151-.129.193-.389.193-.17 0-.363.021-.623.064-.58.108-.752.474-.795 1.227-.043.688-.043 1.291-.043 4.559v3.786c0 1.978 0 3.677.107 4.602.064.602.193 1.073.84 1.161a9.01 9.01 0 0 0 1.096.086c.236 0 .344.064.344.172 0 .15-.172.214-.43.214-1.396 0-2.752-.063-3.355-.063-.494 0-1.85.063-2.689.063-.299 0-.449-.063-.449-.214 0-.107.086-.172.344-.172.322 0 .58-.043.775-.086.428-.088.535-.56.623-1.184.107-.902.107-2.602.107-4.579v-1.894c0-.086-.064-.129-.131-.129h-8.215c-.064 0-.129.021-.129.129v1.894c0 1.978 0 3.677.107 4.602.064.602.193 1.073.84 1.161.301.043.773.086 1.098.086.234 0 .344.064.344.172 0 .15-.174.214-.432.214-1.396 0-2.752-.063-3.355-.063-.494 0-1.85.063-2.709.063-.279 0-.43-.063-.43-.214 0-.107.086-.172.346-.172.322 0 .578-.043.773-.086.43-.088.537-.56.623-1.184.107-.902.107-2.602.107-4.579V47.77c0-3.268 0-3.871-.043-4.559-.043-.732-.215-1.076-.924-1.227-.174-.043-.537-.064-.84-.064-.236 0-.365-.042-.365-.193 0-.15.15-.193.451-.193 1.16 0 2.516.063 3.098.063.516 0 1.871-.063 2.709-.063.301 0 .451.043.451.193 0 .151-.129.193-.387.193-.172 0-.365.021-.623.064-.58.108-.754.474-.795 1.227-.045.688-.045 1.291-.045 4.559v.451c0 .107.064.152.129.152h8.216z"/><path fill="#747173" d="M220.426 52.307c-.109 0-.152.043-.195.172l-1.16 2.947c-.215.539-.322 1.054-.322 1.312 0 .386.193.666.859.666h.322c.258 0 .324.042.324.172 0 .172-.131.214-.367.214-.689 0-1.613-.063-2.277-.063-.238 0-1.422.063-2.541.063-.277 0-.406-.042-.406-.214 0-.13.086-.172.258-.172.191 0 .494-.021.666-.043.99-.131 1.398-.861 1.828-1.936l5.398-13.333c.258-.624.387-.86.602-.86.193 0 .322.193.537.688.516 1.183 3.959 9.785 5.334 13.055.816 1.934 1.441 2.235 1.893 2.344.322.064.646.086.902.086.174 0 .279.021.279.172 0 .172-.193.214-.988.214-.775 0-2.344 0-4.064-.042-.387-.021-.645-.021-.645-.172 0-.13.086-.172.299-.193.152-.044.303-.236.195-.495l-1.721-4.43c-.043-.108-.107-.151-.215-.151h-4.795zm4.386-1.074c.107 0 .129-.064.107-.13l-1.936-5.29c-.021-.086-.043-.192-.107-.192s-.107.106-.129.192l-1.98 5.27c-.02.086 0 .15.088.15h3.957zm12.403.323c0 2.064 0 3.677.107 4.579.064.624.193 1.096.838 1.184.303.043.777.086 1.076.086.279 0 .365.064.365.172 0 .15-.15.214-.473.214-1.355 0-2.711-.063-3.268-.063-.561 0-1.916.063-2.732.063-.301 0-.451-.042-.451-.214 0-.107.084-.172.322-.172.322 0 .58-.043.773-.086.43-.088.539-.56.623-1.184.109-.902.109-2.515.109-4.579V47.77c0-3.268 0-3.871-.045-4.559-.041-.732-.215-1.076-.924-1.227-.172-.043-.537-.064-.84-.064-.215 0-.363-.042-.363-.171 0-.173.172-.216.494-.216.559 0 1.184.021 1.74.021.561.021 1.055.042 1.357.042.816 0 5.182 0 5.676-.021.408-.021.666-.021.883-.088.127-.041.236-.127.342-.127.088 0 .152.086.152.193 0 .149-.107.408-.172.969-.021.214-.064 1.482-.107 1.741-.021.171-.064.301-.215.301s-.195-.108-.217-.345c0-.172 0-.516-.127-.815-.152-.303-.604-.625-1.42-.646l-3.312-.066c-.129 0-.193.066-.193.303v5.377c0 .127.021.192.15.192l2.752-.022c.367 0 .668 0 .969-.021.408-.021.709-.106.924-.385.107-.131.152-.216.279-.216.086 0 .131.063.131.193 0 .128-.107.666-.174 1.333-.041.43-.084 1.42-.084 1.57 0 .193 0 .408-.217.408-.129 0-.172-.151-.172-.301 0-.151-.043-.41-.129-.666-.107-.303-.43-.688-1.096-.775-.539-.065-2.816-.065-3.184-.065-.107 0-.15.044-.15.194v1.745zm13.414-8.818l-3.205.086c-1.246.044-1.762.151-2.086.624-.215.322-.322.58-.365.752-.043.173-.107.258-.236.258-.15 0-.193-.107-.193-.344 0-.344.408-2.301.451-2.473.064-.279.129-.408.258-.408.172 0 .387.215.926.256a21.99 21.99 0 0 0 2.15.108h8.516a10 10 0 0 0 1.484-.108c.322-.062.494-.106.58-.106.152 0 .174.13.174.452 0 .451-.066 1.936-.066 2.494-.021.216-.064.344-.193.344-.172 0-.215-.106-.236-.431l-.021-.235c-.043-.559-.623-1.162-2.537-1.205l-2.711-.063v8.818c0 1.978 0 3.677.107 4.602.064.602.193 1.073.84 1.161.301.043.773.086 1.098.086.234 0 .344.064.344.172 0 .15-.174.214-.408.214-1.42 0-2.775-.063-3.379-.063-.494 0-1.848.063-2.709.063-.279 0-.43-.063-.43-.214 0-.107.086-.172.346-.172.322 0 .578-.043.773-.086.43-.088.559-.56.623-1.184.107-.902.107-2.602.107-4.579v-8.819zM-34.692 169.314h-.019c-.939 0-1.887-.055-2.814-.167l1.176-9.886c.54.065 1.09.096 1.638.096l.127.002-.109 4.24v5.715z"/><path fill="#009D3A" d="M-38.559 166.119a23.42 23.42 0 0 1-2.354-.662l3.193-9.431c.444.15.9.279 1.357.383l-2.196 9.71zm9.306.424l-3.54-9.306c.438-.166.872-.358 1.292-.57l4.486 8.889c-.725.366-1.479.699-2.238.987z"/><path fill="#007745" d="M-42.882 166.484a24.351 24.351 0 0 1-2.166-1.134l5.074-8.566c.404.237.825.46 1.25.654l-4.158 9.046z"/><path fill="#747173" d="M-24.294 167.479l-5.383-8.375a14.14 14.14 0 0 0 1.149-.825l6.217 7.776a23.59 23.59 0 0 1-1.983 1.424z"/><path fill="#007745" d="M-22.12 163.966l-6.982-7.099a13.8 13.8 0 0 0 1.105-1.226l7.782 6.209c-.589.74-1.23 1.451-1.905 2.116zm-27.18-2.553a23.85 23.85 0 0 1-1.642-2.327l8.459-5.245c.29.466.61.919.953 1.348l-7.77 6.224z"/><path fill="#009D3A" d="M-49.496 156.861a23.579 23.579 0 0 1-.952-2.254l9.362-3.387c.16.44.344.877.549 1.299l-8.959 4.342z"/><path fill="#747173" d="M-15.285 157.2l-9.479-3.043c.143-.444.264-.901.359-1.361l9.746 2.036a24.045 24.045 0 0 1-.626 2.368zm-36.559-3.816a23.66 23.66 0 0 1-.465-2.398l9.861-1.382c.065.466.154.935.267 1.388l-9.663 2.392z"/><path fill="#007745" d="M-16.651 152.978l-9.904-1.017c.048-.466.073-.945.073-1.417l9.956-.108v.143c.001.775-.041 1.594-.125 2.399z"/><path fill="#009D3A" d="M-24.458 149.981a14.055 14.055 0 0 0-.274-1.627l9.699-2.244c.213.923.373 1.869.474 2.812l-9.899 1.059zm-18.827-2.405l-9.714-2.184c.209-.926.476-1.851.795-2.744l9.376 3.348a13.576 13.576 0 0 0-.457 1.58z"/><path fill="#747173" d="M-40.226 146.715l-8.978-4.307c.352-.733.746-1.456 1.171-2.146l8.482 5.213c-.244.399-.473.816-.675 1.24z"/><path fill="#007745" d="M-27.195 146.651a13.787 13.787 0 0 0-.848-1.132l7.649-6.373a23.42 23.42 0 0 1 1.465 1.955l-8.266 5.55zm-13.489-2.34l-7.898-6.06a22.977 22.977 0 0 1 1.583-1.855l7.235 6.837c-.323.341-.632.703-.92 1.078z"/><path fill="#009D3A" d="M-26.297 143.363a14.127 14.127 0 0 0-1.064-.936l6.188-7.8c.634.503 1.25 1.046 1.831 1.611l-6.955 7.125z"/><path fill="#747173" d="M-28.639 143.241a13.962 13.962 0 0 0-1.44-.801l4.295-8.981c.855.41 1.693.876 2.495 1.384l-5.35 8.398z"/><path fill="#009D3A" d="M-38.167 140.927l-4.351-8.955a23.63 23.63 0 0 1 2.637-1.089l3.234 9.416c-.517.177-1.028.39-1.52.628z"/><path fill="#747173" d="M-35.465 142.919l-2.235-9.702a23.85 23.85 0 0 1 2.407-.423l1.218 9.881c-.467.058-.935.141-1.39.244z"/><path fill="#007745" d="M-32.318 141.03c-.47-.04-.95-.054-1.42-.044l-.199-9.955c.807-.015 1.629.01 2.434.077l-.815 9.922z"/></svg>